<?xml version="1.0" standalone="no"?>
<!DOCTYPE svg PUBLIC "-//W3C//DTD SVG 20010904//EN"
 "http://www.w3.org/TR/2001/REC-SVG-20010904/DTD/svg10.dtd">
<svg version="1.0" xmlns="http://www.w3.org/2000/svg"
 width="500.000000pt" height="500.000000pt" viewBox="0 0 500.000000 500.000000"
 preserveAspectRatio="xMidYMid meet">

<g transform="translate(0.000000,500.000000) scale(0.100000,-0.100000)"
fill="#000000" stroke="none">
<path d="M1298 4340 c-83 -14 -161 -41 -238 -81 -170 -89 -281 -201 -360 -364
-92 -189 -85 -73 -85 -1415 0 -1321 -5 -1230 70 -1387 86 -183 205 -302 388
-389 157 -74 59 -69 1447 -69 l1245 0 93 32 c224 76 393 232 478 441 63 156
59 71 59 1372 l0 1185 -23 80 c-70 248 -220 426 -446 530 -160 74 -56 69
-1386 71 -657 1 -1216 -2 -1242 -6z m2435 -275 c186 -48 333 -196 381 -381 14
-55 16 -194 16 -1205 0 -1255 3 -1190 -61 -1316 -65 -129 -210 -236 -354 -263
-43 -8 -400 -10 -1245 -8 l-1185 3 -60 22 c-178 68 -301 213 -340 401 -22 108
-22 2231 0 2337 35 166 142 304 290 375 44 21 91 41 105 43 14 2 558 5 1210 6
1021 1 1194 -1 1243 -14z"/>
<path d="M3143 3555 c-12 -8 -40 -53 -62 -100 -69 -141 -179 -244 -322 -301
-101 -40 -108 -44 -115 -81 -8 -40 15 -79 53 -94 32 -12 111 9 194 51 33 17
60 25 65 20 5 -5 61 -11 124 -12 l115 -3 0 -40 c0 -37 -2 -40 -31 -43 -24 -2
-39 4 -62 27 -33 33 -76 41 -104 19 -8 -7 -38 -47 -66 -88 -63 -93 -126 -154
-217 -213 -96 -62 -105 -72 -105 -110 0 -73 78 -100 157 -56 102 57 227 164
275 235 21 30 28 34 71 34 l47 0 -21 -42 c-89 -174 -226 -309 -396 -390 -48
-23 -93 -49 -100 -58 -21 -26 -16 -84 10 -108 31 -29 60 -28 147 8 192 79 380
252 472 433 l29 59 47 -71 c79 -119 215 -242 303 -273 40 -14 82 4 104 45 24
47 8 77 -67 128 -35 24 -83 61 -107 83 -46 43 -144 176 -136 184 2 3 40 4 84
3 102 -3 146 14 156 59 5 24 2 39 -12 59 -20 25 -23 26 -159 31 -151 5 -154 7
-140 66 6 24 7 24 140 24 120 0 135 2 151 20 28 31 24 79 -9 107 -27 23 -29
23 -288 23 l-260 0 35 39 c19 22 40 49 47 60 10 20 18 21 195 21 172 0 186 1
205 20 28 28 26 75 -5 105 -23 24 -29 25 -167 25 l-143 0 -2 32 c-5 65 -77
100 -130 63z"/>
<path d="M1812 3453 c-15 -13 -33 -74 -71 -228 -153 -632 -208 -863 -256
-1070 -14 -60 -32 -137 -40 -170 -8 -33 -23 -98 -34 -145 -11 -47 -29 -124
-40 -171 -24 -100 -26 -130 -9 -147 8 -8 50 -12 123 -12 94 0 114 3 127 18 9
9 36 97 59 194 l44 178 241 0 242 0 5 -22 c18 -85 91 -345 99 -355 7 -9 45
-13 123 -13 99 0 114 2 130 20 20 22 20 22 -19 165 -15 55 -36 133 -47 173
-10 39 -28 107 -40 150 -36 136 -227 851 -270 1012 -23 85 -54 201 -70 256
-16 56 -29 109 -29 118 0 10 -11 28 -25 41 -22 23 -31 25 -123 25 -81 0 -104
-3 -120 -17z m148 -628 c12 -44 53 -204 91 -355 38 -151 72 -283 75 -292 5
-17 -8 -18 -175 -18 -146 0 -181 3 -181 14 0 12 38 185 110 496 17 74 36 159
42 188 6 29 12 51 14 50 1 -2 12 -39 24 -83z"/>
<path d="M3052 2318 c-8 -8 -12 -50 -12 -125 l0 -113 -134 0 c-120 0 -136 -2
-160 -21 -30 -23 -35 -72 -12 -105 13 -17 31 -20 158 -24 l143 -5 3 -135 c3
-128 -9 -233 -28 -245 -4 -3 -39 11 -76 30 -38 19 -81 35 -95 35 -33 0 -79
-44 -79 -76 0 -50 91 -116 203 -146 85 -22 178 29 221 122 18 39 22 70 26 230
l5 185 105 0 105 0 3 -109 c4 -157 -9 -207 -69 -271 -37 -40 -49 -59 -49 -83
0 -59 60 -94 124 -72 49 16 119 95 145 163 20 55 21 74 21 398 0 215 -4 347
-10 360 -10 18 -24 19 -268 19 -187 0 -261 -3 -270 -12z m378 -188 l0 -50
-110 0 -110 0 0 50 0 50 110 0 110 0 0 -50z"/>
</g>
</svg>
